<?xml version="1.0" encoding="UTF-8" standalone="no"?>
<!-- Created with Inkscape (http://www.inkscape.org/) -->

<svg
   xmlns:dc="http://purl.org/dc/elements/1.1/"
   xmlns:cc="http://creativecommons.org/ns#"
   xmlns:rdf="http://www.w3.org/1999/02/22-rdf-syntax-ns#"
   xmlns:svg="http://www.w3.org/2000/svg"
   xmlns="http://www.w3.org/2000/svg"
   xmlns:sodipodi="http://sodipodi.sourceforge.net/DTD/sodipodi-0.dtd"
   xmlns:inkscape="http://www.inkscape.org/namespaces/inkscape"
   version="1.1"
   id="svg115"
   width="454"
   height="630"
   viewBox="0 0 454 630"
   sodipodi:docname="4.svg"
   inkscape:version="0.92.5 (2060ec1f9f, 2020-04-08)">
  <metadata
     id="metadata121">
    <rdf:RDF>
      <cc:Work
         rdf:about="">
        <dc:format>image/svg+xml</dc:format>
        <dc:type
           rdf:resource="http://purl.org/dc/dcmitype/StillImage" />
        <dc:title></dc:title>
      </cc:Work>
    </rdf:RDF>
  </metadata>
  <defs
     id="defs119">
    <filter
       style="color-interpolation-filters:sRGB;"
       inkscape:label="Duochrome"
       id="filter116">
      <feColorMatrix
         type="luminanceToAlpha"
         result="colormatrix1"
         id="feColorMatrix96" />
      <feFlood
         flood-opacity="1"
         flood-color="rgb(0,0,0)"
         result="flood1"
         id="feFlood98" />
      <feComposite
         in2="colormatrix1"
         operator="out"
         result="composite1"
         id="feComposite100" />
      <feFlood
         flood-opacity="1"
         flood-color="rgb(255,255,255)"
         result="flood2"
         id="feFlood102" />
      <feComposite
         in2="colormatrix1"
         result="composite2"
         operator="in"
         id="feComposite104" />
      <feComposite
         in="composite2"
         in2="composite1"
         k2="1"
         k3="1"
         operator="arithmetic"
         result="composite3"
         id="feComposite106" />
      <feColorMatrix
         in="composite3"
         type="matrix"
         values="2 -1 0 0 0 0 2 -1 0 0 -1 0 2 0 0 0 0 0 1 0 "
         result="colormatrix2"
         id="feColorMatrix108" />
      <feComposite
         in="colormatrix2"
         in2="composite3"
         operator="arithmetic"
         k2="0"
         result="composite4"
         id="feComposite110" />
      <feBlend
         in="composite4"
         in2="composite3"
         mode="normal"
         result="blend"
         id="feBlend112" />
      <feComposite
         in2="SourceGraphic"
         operator="in"
         id="feComposite114"
         result="fbSourceGraphic" />
      <feColorMatrix
         result="fbSourceGraphicAlpha"
         in="fbSourceGraphic"
         values="0 0 0 -1 0 0 0 0 -1 0 0 0 0 -1 0 0 0 0 1 0"
         id="feColorMatrix118" />
      <feColorMatrix
         id="feColorMatrix120"
         type="luminanceToAlpha"
         result="colormatrix1"
         in="fbSourceGraphic" />
      <feFlood
         id="feFlood122"
         flood-opacity="1"
         flood-color="rgb(0,0,0)"
         result="flood1" />
      <feComposite
         in2="colormatrix1"
         id="feComposite124"
         operator="out"
         result="composite1" />
      <feFlood
         id="feFlood126"
         flood-opacity="1"
         flood-color="rgb(255,255,255)"
         result="flood2" />
      <feComposite
         in2="colormatrix1"
         id="feComposite128"
         result="composite2"
         operator="in" />
      <feComposite
         in2="composite1"
         id="feComposite130"
         in="composite2"
         k2="1"
         k3="1"
         operator="arithmetic"
         result="composite3" />
      <feColorMatrix
         id="feColorMatrix132"
         in="composite3"
         type="matrix"
         values="2 -1 0 0 0 0 2 -1 0 0 -1 0 2 0 0 0 0 0 1 0 "
         result="colormatrix2" />
      <feComposite
         in2="composite3"
         id="feComposite134"
         in="colormatrix2"
         operator="arithmetic"
         k2="0"
         result="composite4" />
      <feBlend
         in2="composite3"
         id="feBlend136"
         in="composite4"
         mode="normal"
         result="blend" />
      <feComposite
         in2="fbSourceGraphic"
         id="feComposite138"
         operator="in" />
    </filter>
  </defs>
  <sodipodi:namedview
     pagecolor="#ffffff"
     bordercolor="#666666"
     borderopacity="1"
     objecttolerance="10"
     gridtolerance="10"
     guidetolerance="10"
     inkscape:pageopacity="0"
     inkscape:pageshadow="2"
     inkscape:window-width="1920"
     inkscape:window-height="1030"
     id="namedview117"
     showgrid="false"
     inkscape:zoom="1.3063492"
     inkscape:cx="89.211417"
     inkscape:cy="406.85905"
     inkscape:window-x="0"
     inkscape:window-y="26"
     inkscape:window-maximized="1"
     inkscape:current-layer="svg115" />
  <g
     id="g6595"
     transform="matrix(7.4938663,0,0,6.9762795,-2245.6246,-2316.4358)">
    <rect
       style="fill:#ffffff;fill-opacity:1;fill-rule:evenodd;stroke:#000000;stroke-width:0.5;stroke-miterlimit:4;stroke-dasharray:none"
       id="rect2987-8-5-6"
       y="332.36218"
       x="300"
       ry="10"
       rx="10"
       height="90"
       width="60" />
    <rect
       style="fill:#ff5555;fill-opacity:1;fill-rule:evenodd;stroke:none"
       id="rect3757-26-33-81"
       y="337.36218"
       x="305"
       ry="5"
       rx="5"
       height="80"
       width="50" />
    <path
       inkscape:connector-curvature="0"
       style="fill:#ffffff;fill-opacity:1;fill-rule:evenodd;stroke:none"
       id="path3773-0-4-8-4-60-3-9"
       d="m 345,352.36217 c -22.09139,0 -40,17.90861 -40,40 0,5.52285 4.47715,10 10,10 22.09139,0 40,-17.90861 40,-40 0,-5.52285 -4.47715,-10 -10,-10 z" />
    <path
       inkscape:connector-curvature="0"
       style="fill:#ff5555;fill-opacity:1;stroke:none"
       id="rect3163-6-0-0-2-7-1-2-19-4"
       d="m 321,362.36217 v 10 5 h 10 c 2.77,0 5,2.23 5,5 0,2.77 -2.23,5 -5,5 -2.77,0 -5,-2.23 -5,-5 h -5 c 0,5.54 4.46,10 10,10 5.54,0 10,-4.46 10,-10 0,-5.54 -4.46,-10 -10,-10 h -5 v -5 h 5 9 v -5 h -9 -5 z" />
    <path
       inkscape:connector-curvature="0"
       style="fill:#ffffff;fill-opacity:1;stroke:none"
       id="rect3163-6-0-0-2-7-1-2-19-2-4"
       d="m 307.5,339.86217 v 5 2.5 h 5 c 1.385,0 2.5,1.115 2.5,2.5 0,1.385 -1.115,2.5 -2.5,2.5 -1.385,0 -2.5,-1.115 -2.5,-2.5 h -2.5 c 0,2.77 2.23,5 5,5 2.77,0 5,-2.23 5,-5 0,-2.77 -2.23,-5 -5,-5 H 310 v -2.5 h 2.5 4.5 v -2.5 h -4.5 -2.5 z" />
    <path
       inkscape:connector-curvature="0"
       style="fill:#ffffff;fill-opacity:1;stroke:none"
       id="rect3163-6-0-0-2-7-1-2-19-2-4-6"
       d="m 352.5,414.86217 v -5 -2.5 h -5 c -1.385,0 -2.5,-1.115 -2.5,-2.5 0,-1.385 1.115,-2.5 2.5,-2.5 1.385,0 2.5,1.115 2.5,2.5 h 2.5 c 0,-2.77 -2.23,-5 -5,-5 -2.77,0 -5,2.23 -5,5 0,2.77 2.23,5 5,5 h 2.5 v 2.5 h -2.5 -4.5 v 2.5 h 4.5 2.5 z" />
  </g>
</svg>
