<?xml version="1.0" encoding="UTF-8" standalone="no"?>
<!-- Created with Inkscape (http://www.inkscape.org/) -->

<svg
   xmlns:dc="http://purl.org/dc/elements/1.1/"
   xmlns:cc="http://creativecommons.org/ns#"
   xmlns:rdf="http://www.w3.org/1999/02/22-rdf-syntax-ns#"
   xmlns:svg="http://www.w3.org/2000/svg"
   xmlns="http://www.w3.org/2000/svg"
   xmlns:sodipodi="http://sodipodi.sourceforge.net/DTD/sodipodi-0.dtd"
   xmlns:inkscape="http://www.inkscape.org/namespaces/inkscape"
   version="1.1"
   id="svg115"
   width="454"
   height="630"
   viewBox="0 0 454 630"
   sodipodi:docname="5.svg"
   inkscape:version="0.92.5 (2060ec1f9f, 2020-04-08)">
  <metadata
     id="metadata121">
    <rdf:RDF>
      <cc:Work
         rdf:about="">
        <dc:format>image/svg+xml</dc:format>
        <dc:type
           rdf:resource="http://purl.org/dc/dcmitype/StillImage" />
        <dc:title></dc:title>
      </cc:Work>
    </rdf:RDF>
  </metadata>
  <defs
     id="defs119">
    <filter
       style="color-interpolation-filters:sRGB;"
       inkscape:label="Duochrome"
       id="filter116">
      <feColorMatrix
         type="luminanceToAlpha"
         result="colormatrix1"
         id="feColorMatrix96" />
      <feFlood
         flood-opacity="1"
         flood-color="rgb(0,0,0)"
         result="flood1"
         id="feFlood98" />
      <feComposite
         in2="colormatrix1"
         operator="out"
         result="composite1"
         id="feComposite100" />
      <feFlood
         flood-opacity="1"
         flood-color="rgb(255,255,255)"
         result="flood2"
         id="feFlood102" />
      <feComposite
         in2="colormatrix1"
         result="composite2"
         operator="in"
         id="feComposite104" />
      <feComposite
         in="composite2"
         in2="composite1"
         k2="1"
         k3="1"
         operator="arithmetic"
         result="composite3"
         id="feComposite106" />
      <feColorMatrix
         in="composite3"
         type="matrix"
         values="2 -1 0 0 0 0 2 -1 0 0 -1 0 2 0 0 0 0 0 1 0 "
         result="colormatrix2"
         id="feColorMatrix108" />
      <feComposite
         in="colormatrix2"
         in2="composite3"
         operator="arithmetic"
         k2="0"
         result="composite4"
         id="feComposite110" />
      <feBlend
         in="composite4"
         in2="composite3"
         mode="normal"
         result="blend"
         id="feBlend112" />
      <feComposite
         in2="SourceGraphic"
         operator="in"
         id="feComposite114"
         result="fbSourceGraphic" />
      <feColorMatrix
         result="fbSourceGraphicAlpha"
         in="fbSourceGraphic"
         values="0 0 0 -1 0 0 0 0 -1 0 0 0 0 -1 0 0 0 0 1 0"
         id="feColorMatrix118" />
      <feColorMatrix
         id="feColorMatrix120"
         type="luminanceToAlpha"
         result="colormatrix1"
         in="fbSourceGraphic" />
      <feFlood
         id="feFlood122"
         flood-opacity="1"
         flood-color="rgb(0,0,0)"
         result="flood1" />
      <feComposite
         in2="colormatrix1"
         id="feComposite124"
         operator="out"
         result="composite1" />
      <feFlood
         id="feFlood126"
         flood-opacity="1"
         flood-color="rgb(255,255,255)"
         result="flood2" />
      <feComposite
         in2="colormatrix1"
         id="feComposite128"
         result="composite2"
         operator="in" />
      <feComposite
         in2="composite1"
         id="feComposite130"
         in="composite2"
         k2="1"
         k3="1"
         operator="arithmetic"
         result="composite3" />
      <feColorMatrix
         id="feColorMatrix132"
         in="composite3"
         type="matrix"
         values="2 -1 0 0 0 0 2 -1 0 0 -1 0 2 0 0 0 0 0 1 0 "
         result="colormatrix2" />
      <feComposite
         in2="composite3"
         id="feComposite134"
         in="colormatrix2"
         operator="arithmetic"
         k2="0"
         result="composite4" />
      <feBlend
         in2="composite3"
         id="feBlend136"
         in="composite4"
         mode="normal"
         result="blend" />
      <feComposite
         in2="fbSourceGraphic"
         id="feComposite138"
         operator="in" />
    </filter>
  </defs>
  <sodipodi:namedview
     pagecolor="#ffffff"
     bordercolor="#666666"
     borderopacity="1"
     objecttolerance="10"
     gridtolerance="10"
     guidetolerance="10"
     inkscape:pageopacity="0"
     inkscape:pageshadow="2"
     inkscape:window-width="1920"
     inkscape:window-height="1030"
     id="namedview117"
     showgrid="false"
     inkscape:zoom="1.3063492"
     inkscape:cx="89.211417"
     inkscape:cy="468.09842"
     inkscape:window-x="0"
     inkscape:window-y="26"
     inkscape:window-maximized="1"
     inkscape:current-layer="svg115" />
  <g
     id="g6619"
     transform="matrix(7.4941574,0,0,6.9676165,-3595.4346,-2313.5495)">
    <rect
       style="fill:#ffffff;fill-opacity:1;fill-rule:evenodd;stroke:#000000;stroke-width:0.5;stroke-miterlimit:4;stroke-dasharray:none"
       id="rect2987-8-5-8"
       y="332.36218"
       x="480"
       ry="10"
       rx="10"
       height="90"
       width="60" />
    <rect
       style="fill:#ff5555;fill-opacity:1;fill-rule:evenodd;stroke:none"
       id="rect3757-26-33-9"
       y="337.36218"
       x="485"
       ry="5"
       rx="5"
       height="80"
       width="50" />
    <path
       inkscape:connector-curvature="0"
       style="fill:#ffffff;fill-opacity:1;fill-rule:evenodd;stroke:none"
       id="path3773-0-4-8-4-60-3-0"
       d="m 525,352.36217 c -22.09139,0 -40,17.90861 -40,40 0,5.52285 4.47715,10 10,10 22.09139,0 40,-17.90861 40,-40 0,-5.52285 -4.47715,-10 -10,-10 z" />
    <path
       inkscape:connector-curvature="0"
       style="fill:#ff5555;fill-opacity:1;stroke:none"
       id="rect3163-52-9-8-1-1-2-7-3-6-4-6-1-8-8-5"
       d="m 510,362.36217 c -4.14214,0 -7.5,3.3578 -7.5,7.5 0,1.6987 0.57931,3.2426 1.53125,4.5 -2.44293,1.8199 -4.03125,4.706 -4.03125,8 0,5.54 4.46,10 10,10 5.54,0 10,-4.46 10,-10 0,-3.294 -1.58832,-6.1801 -4.03125,-8 0.95194,-1.2574 1.53125,-2.8013 1.53125,-4.5 0,-4.1422 -3.35786,-7.5 -7.5,-7.5 z m 0,5 c 1.38071,0 2.5,1.1193 2.5,2.5 0,1.3807 -1.11929,2.5 -2.5,2.5 -1.38071,0 -2.5,-1.1193 -2.5,-2.5 0,-1.3807 1.11929,-2.5 2.5,-2.5 z m -0.5,10 c 0.16849,-0.017 0.32687,0 0.5,0 2.77,0 5,2.23 5,5 0,2.77 -2.23,5 -5,5 -2.77,0 -5,-2.23 -5,-5 0,-2.5969 1.9726,-4.7449 4.5,-5 z" />
    <path
       inkscape:connector-curvature="0"
       style="fill:#ffffff;fill-opacity:1;stroke:none"
       id="rect3163-52-9-8-1-1-2-7-3-6-4-6-1-8-8-2-1"
       d="m 492.5,339.86217 c -2.07107,0 -3.75,1.67889 -3.75,3.75 0,0.84935 0.28965,1.6213 0.76562,2.25 -1.22146,0.90994 -2.01562,2.353 -2.01562,4 0,2.77 2.23,5 5,5 2.77,0 5,-2.23 5,-5 0,-1.647 -0.79416,-3.09006 -2.01563,-4 0.47598,-0.6287 0.76563,-1.40065 0.76563,-2.25 0,-2.07111 -1.67893,-3.75 -3.75,-3.75 z m 0,2.5 c 0.69035,0 1.25,0.55965 1.25,1.25 0,0.69034 -0.55965,1.25 -1.25,1.25 -0.69035,0 -1.25,-0.55966 -1.25,-1.25 0,-0.69035 0.55965,-1.25 1.25,-1.25 z m -0.25,4.99999 c 0.0842,-0.009 0.16343,0 0.25,0 1.385,0 2.5,1.115 2.5,2.50001 0,1.385 -1.115,2.5 -2.5,2.5 -1.385,0 -2.5,-1.115 -2.5,-2.5 0,-1.29845 0.9863,-2.37245 2.25,-2.50001 z" />
    <path
       inkscape:connector-curvature="0"
       style="fill:#ffffff;fill-opacity:1;stroke:none"
       id="rect3163-52-9-8-1-1-2-7-3-6-4-6-1-8-8-2-1-1"
       d="m 527.5,414.86217 c -2.07107,0 -3.75,-1.67889 -3.75,-3.75 0,-0.84935 0.28965,-1.6213 0.76562,-2.25 -1.22146,-0.90994 -2.01562,-2.353 -2.01562,-4 0,-2.77 2.23,-5 5,-5 2.77,0 5,2.23 5,5 0,1.647 -0.79416,3.09006 -2.01563,4 0.47598,0.6287 0.76563,1.40065 0.76563,2.25 0,2.07111 -1.67893,3.75 -3.75,3.75 z m 0,-2.5 c 0.69035,0 1.25,-0.55965 1.25,-1.25 0,-0.69034 -0.55965,-1.25 -1.25,-1.25 -0.69035,0 -1.25,0.55966 -1.25,1.25 0,0.69035 0.55965,1.25 1.25,1.25 z m -0.25,-4.99999 c 0.0842,0.009 0.16343,0 0.25,0 1.385,0 2.5,-1.115 2.5,-2.50001 0,-1.385 -1.115,-2.5 -2.5,-2.5 -1.385,0 -2.5,1.115 -2.5,2.5 0,1.29845 0.9863,2.37245 2.25,2.50001 z" />
  </g>
</svg>
