<?xml version="1.0" encoding="UTF-8" standalone="no"?>
<svg width="95px" height="86px" viewBox="0 0 95 86" version="1.1" xmlns="http://www.w3.org/2000/svg" xmlns:xlink="http://www.w3.org/1999/xlink" xmlns:sketch="http://www.bohemiancoding.com/sketch/ns">
    <!-- Generator: Sketch 3.2.2 (9983) - http://www.bohemiancoding.com/sketch -->
    <title>logo-cloudgrey-cardback</title>
    <desc>Created with Sketch.</desc>
    <defs></defs>
    <g id="Page-1" stroke="none" stroke-width="1" fill="none" fill-rule="evenodd" sketch:type="MSPage">
        <g id="Artboard" sketch:type="MSArtboardGroup" transform="translate(-65.000000, -82.000000)" fill="#DDDDDD">
            <path d="M103.923567,143.288641 C100.836192,143.775541 97.5701055,143.300648 94.5971274,141.719888 C87.9358759,138.178037 85.0544017,130.311759 87.5769402,123.427183 C84.0877375,118.927391 83.3438737,112.624388 86.1888494,107.273767 C90.0567088,99.9993809 99.0933208,97.2399925 106.372687,101.1105 C107.353182,101.631839 108.251785,102.246871 109.063315,102.938674 L109.063318,102.938673 C113.092482,101.18591 117.855446,101.220919 122.038216,103.444937 C127.274203,106.228961 130.174842,111.684848 129.951314,117.235645 C130.93552,117.550487 131.911946,117.960005 132.866228,118.467405 C140.263003,122.40034 143.528338,130.724759 140.159557,137.060514 C137.641914,141.795512 132.131454,144.079765 126.420184,143.290113 C124.43281,147.45107 120.749952,150.386609 116.319667,150.772814 C111.19799,151.219289 106.466285,148.137567 103.923567,143.288641 L103.923567,143.288641 Z M113.996002,130.026278 C117.973773,130.026278 120.888781,126.449452 120.888781,121.720768 C120.888781,117.113332 117.730856,113.506194 113.449438,113.506194 C111.050629,113.506194 109.289478,114.597429 108.135621,116.385842 L108.135621,113.809315 L103.884567,113.809315 L103.884567,136.17963 L108.742914,136.17963 L108.742914,127.14663 C109.744948,128.935043 111.597193,130.026278 113.996002,130.026278 Z M112.325945,125.934147 C110.838076,125.934147 109.380572,124.691352 108.742914,123.084812 L108.742914,119.811107 C109.410937,118.477375 110.746982,117.628637 112.083028,117.628637 C114.330013,117.628637 115.908976,119.356426 115.908976,121.690456 C115.908976,123.963862 114.421107,125.934147 112.325945,125.934147 Z" id="Path" sketch:type="MSShapeGroup"></path>
        </g>
    </g>
</svg>