<?xml version="1.0" encoding="UTF-8" standalone="no"?>
<svg
   xmlns:dc="http://purl.org/dc/elements/1.1/"
   xmlns:cc="http://creativecommons.org/ns#"
   xmlns:rdf="http://www.w3.org/1999/02/22-rdf-syntax-ns#"
   xmlns:svg="http://www.w3.org/2000/svg"
   xmlns="http://www.w3.org/2000/svg"
   xmlns:sodipodi="http://sodipodi.sourceforge.net/DTD/sodipodi-0.dtd"
   xmlns:inkscape="http://www.inkscape.org/namespaces/inkscape"
   width="227px"
   height="315px"
   viewBox="0 0 227 315"
   version="1.1"
   id="svg237"
   sodipodi:docname="0_.svg"
   inkscape:version="0.92.5 (2060ec1f9f, 2020-04-08)">
  <metadata
     id="metadata241">
    <rdf:RDF>
      <cc:Work
         rdf:about="">
        <dc:format>image/svg+xml</dc:format>
        <dc:type
           rdf:resource="http://purl.org/dc/dcmitype/StillImage" />
        <dc:title>Trim</dc:title>
      </cc:Work>
    </rdf:RDF>
  </metadata>
  <sodipodi:namedview
     pagecolor="#ffffff"
     bordercolor="#666666"
     borderopacity="1"
     objecttolerance="10"
     gridtolerance="10"
     guidetolerance="10"
     inkscape:pageopacity="0"
     inkscape:pageshadow="2"
     inkscape:window-width="1920"
     inkscape:window-height="1030"
     id="namedview239"
     showgrid="false"
     inkscape:zoom="2.6126984"
     inkscape:cx="113.5"
     inkscape:cy="157.5"
     inkscape:window-x="0"
     inkscape:window-y="26"
     inkscape:window-maximized="1"
     inkscape:current-layer="svg237" />
  <!-- Generator: Sketch 3.3.3 (12072) - http://www.bohemiancoding.com/sketch -->
  <title
     id="title225">Trim</title>
  <desc
     id="desc227">Created with Sketch.</desc>
  <defs
     id="defs229" />
  <path
     style="fill:#000000;fill-rule:evenodd;stroke:none;stroke-width:1"
     inkscape:connector-curvature="0"
     id="path147-6-9-8-7-0-5-0-8-3"
     d="m 206.62678,262.63134 c 3.90977,-0.0884 5.663,-4.67388 2.76739,-8.23471 -0.42002,-0.51939 -0.46333,-0.81747 0.30583,-0.31856 1.94955,1.358 5.68768,0.46526 5.87912,-3.68638 0.23644,-5.1154 -6.62518,-6.58928 -7.91351,-1.14986 -0.0677,0.57391 -0.51577,0.56081 -0.40776,-0.25381 0.11748,-2.21102 0.7803,-4.27754 1.69141,-6.29274 h -4.64786 c 0.91112,2.0152 1.57395,4.08172 1.69142,6.29274 0.10802,0.81462 -0.33977,0.82772 -0.40777,0.25381 -1.28832,-5.43942 -8.14995,-3.96554 -7.91351,1.14986 0.19144,4.15164 3.92958,5.04438 5.87914,3.68638 0.76914,-0.49891 0.72584,-0.20083 0.30583,0.31856 -2.89562,3.56083 -1.14238,8.14625 2.76728,8.23471 10e-4,2e-5 0,-2e-5 0,0 z" />
  <path
     style="fill:#000000;fill-rule:evenodd;stroke:none;stroke-width:1"
     inkscape:connector-curvature="0"
     id="path147-6-9-8-7-4-5-6-8-9"
     d="m 18.672379,51.444001 c -3.909759,0.088 -5.662994,4.673809 -2.767382,8.234716 0.420009,0.519401 0.463319,0.817402 -0.305829,0.318501 -1.949554,-1.358003 -5.6876837,-0.465201 -5.8791231,3.686407 -0.2364393,5.115411 6.6251711,6.589313 7.9134971,1.149903 0.0677,-0.573901 0.515789,-0.560802 0.407769,0.2538 -0.11747,2.211005 -0.780298,4.277509 -1.691415,6.292713 h 4.647856 c -0.911117,-2.015204 -1.573945,-4.081708 -1.691415,-6.292713 -0.108009,-0.814602 0.339779,-0.827701 0.407769,-0.2538 1.288326,5.43941 8.149947,3.965508 7.913507,-1.149903 -0.191439,-4.151608 -3.929568,-5.04441 -5.879133,-3.686407 -0.769147,0.498901 -0.725838,0.2009 -0.305819,-0.318501 2.895612,-3.560907 1.142377,-8.146316 -2.767292,-8.234716 -0.001,0 0,0 0,0 z" />
</svg>
